<svg id="Icon_awesome-facebook-square" data-name="Icon awesome-facebook-square" xmlns="http://www.w3.org/2000/svg" width="64" height="64" viewBox="0 0 64 64">
  <path id="Icon_awesome-facebook-square-2" data-name="Icon awesome-facebook-square" d="M57.143,2.25H6.857A6.857,6.857,0,0,0,0,9.107V59.393A6.857,6.857,0,0,0,6.857,66.25H26.464V44.491h-9V34.25h9V26.444c0-8.879,5.286-13.783,13.381-13.783a54.524,54.524,0,0,1,7.931.691v8.714H43.31c-4.4,0-5.774,2.731-5.774,5.533v6.65h9.826L45.79,44.491H37.536V66.25H57.143A6.857,6.857,0,0,0,64,59.393V9.107A6.857,6.857,0,0,0,57.143,2.25Z" transform="translate(0 -2.25)" fill="#bbabf1"/>
</svg>
